<?xml version="1.0" encoding="utf-8"?>
<!-- Generator: Adobe Illustrator 19.2.0, SVG Export Plug-In . SVG Version: 6.00 Build 0)  -->
<svg version="1.1" id="Ebene_1" xmlns="http://www.w3.org/2000/svg" xmlns:xlink="http://www.w3.org/1999/xlink" x="0px" y="0px"
	 viewBox="0 0 100 100" style="enable-background:new 0 0 100 100;" xml:space="preserve">
<style type="text/css">
	.st0{fill:#23D2AF;}
</style>
<path d="M98.3,58H94V43.6l3.3-3.3c0.7-0.7,0.4-2-0.6-2.3l-4.5-1.7l-0.4-1.1l2.8-3.9c0.6-0.7,0.1-2-0.9-2.2L89,28.3l-0.6-1l2-4.4
	c0.4-0.9-0.4-2-1.3-2l-4.8,0.2l-0.7-0.9l1.1-4.7c0.2-0.9-0.7-2-1.7-1.7L78.2,15l-0.9-0.7l0.2-4.8c0-0.9-1.1-1.8-2-1.3l-4.4,2l-1-0.6
	l-0.7-4.7c-0.2-0.9-1.4-1.5-2.2-0.9l-3.9,2.8l-1.1-0.4l-1.7-4.5c-0.4-0.9-1.7-1.2-2.3-0.5l-3.3,3.5l-1.2-0.1l-2.5-4.1
	c-0.6-0.8-1.9-0.8-2.4,0l-2.5,4.1L45,4.8l-3.3-3.5c-0.7-0.7-2-0.5-2.3,0.5l-1.7,4.5l-1.1,0.4l-3.9-2.8c-0.8-0.6-2,0-2.2,0.9
	l-0.7,4.7l-1,0.6l-4.4-2c-0.9-0.4-2,0.4-2,1.3l0.2,4.8L21.7,15L17,13.8c-0.9-0.2-2,0.7-1.7,1.7l1.1,4.7l-0.7,0.9l-4.8-0.2
	c-0.9,0-1.8,1.1-1.3,2l2,4.4l-0.6,1L6.2,29c-0.9,0.2-1.5,1.4-0.9,2.2l2.8,3.9l-0.4,1.1L3.2,38c-0.9,0.4-1.4,1.7-0.6,2.3L6,43.5V58
	H1.6C1.3,58,1,58.3,1,58.6V69c0,0.3,0.3,0,0.6,0h14.2c3-3,6.6-5.5,10.5-6.2c0.6-0.1,1.1,0,1.7,0c4.2,0,7.5,2.7,7.8,6.4
	c0.5-0.3,1-0.4,1.5-0.5c0.3-0.1,0.6-0.2,0.7-0.2c0.8,0,1.6,0.5,2.2,0.5h1.3c0.4,0,0.6-0.3,0.6-0.6L41.7,51h9.2
	c0.8,0,4.5,0.7,5.7,5.3c0.4,1.4,1.2,6.3,1.7,7.8c0.4,1.3,1.3,2.8,2.6,3.8c0.7-1.8,1.2-3.3,1.3-3.8c-0.1-0.7,0.2-1.4,0.7-1.9
	c0.6-0.7,1.4-1,2.3-1c1.6,0,3.7,1,4.2,4.4c0.1,0.8-0.1,1.4-0.5,3.4h12.1c0.5,0,1-0.6,1.4-0.9c0.5-0.3,1.3-0.8,2-0.8
	c1.2,0,2.4,0.7,3.3,1.7h10.8c0.4,0,0.7,0.3,0.7,0V58.7C99,58.4,98.6,58,98.3,58z M49.6,8.4c1.6,0,2.9,1.3,2.9,2.9s-1.3,2.9-2.9,2.9
	c-1.6,0-2.9-1.3-2.9-2.9S48,8.4,49.6,8.4z M12.2,37.6c0-1.6,1.3-2.9,2.9-2.9c1.6,0,2.9,1.3,2.9,2.9c0,1.6-1.3,2.9-2.9,2.9
	S12.2,39.2,12.2,37.6z M26,58H14V44.4l6.4-2.8c1.3-0.6,2-2.3,1.4-3.6l-1.2-3H26V58z M52.7,42H42v-7h11.7c0.7,0,4.4,0.9,4.4,3.7
	C58,41,55.2,42,52.7,42z M85,58h-8v0.3c-2,0-3.8-0.5-4.1-2.1c-1.1-6.1-3-7.4-5.9-9.8c3.5-2.2,7.3-5.6,7.3-10.1
	c0-4.8-3.4-8.1-5.6-9.6C65.6,24.6,62,24,61.1,24H23.3c5.2-6,12.2-9.6,19.9-11.1l4.5,4.7c1,1,2.7,1.2,3.7,0.1l5-4.7
	c10.2,2,19.2,8.3,24.4,17.4l-3.4,7.7c-0.6,1.3-0.2,2.9,1.1,3.4l6.4,2.9V58z M84.1,40.6c-1.6,0-2.9-1.3-2.9-2.9
	c0-1.6,1.3-2.9,2.9-2.9c1.6,0,2.9,1.3,2.9,2.9C87,39.3,85.7,40.6,84.1,40.6z"/>
<g>
	<path class="st0" d="M47.8,94.5C47.6,95,47,95.8,45.5,96c-1.5,0.2-4.1-0.5-4.8-4.9c-0.7-4.5,2-9.8,3-11.3c0.9-1.5-1.3-2.7-1.8-3
		c-0.5-0.3-0.7,0.1-1,0.4c-0.5,0.4-3.6,2.7-3.6,2.7s2.9-5.4,2.5-7.4c-0.2-1-1.1-1.6-2-1.4c-1.8,0.3-4.4,3.6-3.7,7.6
		c0.3,2,1.1,2.6,1.7,2.8c-0.2,0.5-0.5,1-0.7,1.5c-0.5,0.8-1,1.7-1.6,2.3c0.1-0.4,0.1-0.7,0.1-1.1c-0.1-4.4-3.8-5.4-4.7-5.6
		c1-1.1,4.9-5.6,4.8-8.5c-0.1-3.4-3-5.6-7-4.9C17.4,66.7,9.8,81.1,9.9,84.1c0,1,0.8,2,2,1.8c1.2-0.2,2.8-1.7,4-3.2
		c-1.2,2.7-2.5,5.8-2,7.4c0.8,2.4,3,2.7,2.8,1.4c-0.4-2.3,4.8-11,4.6-13c-0.2-1.3-1.7-2.6-3.1-2.4c-0.3,0.1,0,0.7-0.3,1.6l0,0.1
		c-0.1,0.1-0.1,0.3-0.2,0.4c-2.1,3.4-6,8.2-6.1,6.1c-0.1-2.3,8.7-15.6,15.5-16.8c2.5-0.4,4,0.1,4.1,2c0.2,3.4-8.3,11.1-9.2,12.4
		c-0.9,1.3,0.7,2.6,0.7,2.6s3.4-3.4,5.4-3.6c4.9-0.8,2.1,7.2,1.8,7.1c-3,2.6-9.8,7.4-9.7,10c0,1.3,0.7,2.1,2.5,2.1h0.1
		c0.1,0,0.1,0,0.2,0c4.3-2,8.8-8,10.1-13.1c0.9-1,1.9-2.3,2.5-3.4c0.5-0.8,0.8-1.6,0.9-1.8c0,0,0-0.1,0-0.1c1.3-0.2,2.6-0.8,3.2-1.3
		c-0.9,2-2.5,6.3-2,10c0.8,4.9,4.8,6.9,7.5,6.4c2.7-0.4,3.1-2.3,3.1-2.3S48.1,93.9,47.8,94.5z M22.2,98.5c-0.4,0.1-0.5-0.2-0.5-0.6
		c0-1.7,4.7-5.5,7.4-7.7C27.5,94,23.9,98.3,22.2,98.5z M37.9,74.1c0.8-0.2-0.4,2.5-1.4,5.5c0,0-0.6-0.4-0.7-1.3
		C35.7,77,37.1,74.2,37.9,74.1z"/>
	<path class="st0" d="M49.8,74.8c0.4-0.1,0.4-0.1,0.9-1.6c0.6-1.6,1.4-1.8,1.3-2.7c-0.1-0.9-2-1.4-2.6-1.3c-0.6,0.1-1.7,0.9-1.5,2.8
		C48,73.9,49.2,74.8,49.8,74.8z"/>
	<path class="st0" d="M88.6,73.3c-1.8,3.7-5.8,8.5-7.4,8.7c-1.3,0.2-0.7-1.7-0.7-1.7c1.4-0.2,6.1-5.3,5.8-7.7
		c-0.4-2.4-1.6-2.7-2.2-2.6c-0.9,0.1-2.8,1.9-4.3,4.1c0,0-1.1,1.7-1.3,1.9c-1.6,2.8-3.9,5.8-5,6.8c0.7-2,1-3.7,0.8-4.6
		c-0.5-1.9-2.6-1.9-2.2-1.5c0.5,0.5-3.4,7.1-4.1,7.2c-2.1,0.4,2.8-9.4,5.9-9.9c0.6-0.1-1.1-2.6-2.6-2.3c-2.1,0.3-5.1,4.5-6.3,7.9
		c-1.7,2.9-3.8,5.6-4.4,5.6c-1.9,0.4,6.9-16.2,6.4-19.2c-0.6-3.4-2.7-3.1-2.6-2.2c0.2,1.5-4,11.4-4,11.4s-0.7-1.4-2.6-1.1
		c-2,0.3-6,5.2-6.9,8.9c-1.5,2.5-3.1,4.6-3.6,4.6c-2.7,0.5,2-6.8,1.9-8.8c-0.1-2-1.4-2.9-2-2.8c-0.6,0.1-0.4,0.7-0.5,1.2
		c-0.7,3.3-2.9,6.8-2.7,8.7c0,1.4,0.8,3.4,2.8,3.2c1.1-0.2,2.6-2.1,4-4.2c0,0.1,0,0.2,0,0.2c0.4,2.3,2.1,3,3.3,2.8s3.2-3.9,3.2-3.9
		c0.4,2.5,1.7,3.2,2.9,3c1.2-0.2,2.9-2.4,4.4-4.7c0,0.2,0,0.5,0.1,0.7c0.5,1.9,2.2,2.8,3.2,2.6c0.9-0.2,3.6-4.9,3.6-4.9
		s-1.6,5-2.5,6.4c0,0-8.7,5.7-8.3,7.4c0.4,1.7,1.8,2.3,2.8,2.1c4-0.7,7.3-5.6,9.3-10.6l0.4-1v-0.1c1-0.7,3.2-3.2,4.7-5.6
		c-0.1,0.6-0.1,1.2,0,1.7c0.5,3.2,3,2.8,3,2.8c3.3-0.6,8.3-9.1,8.7-10.1C89.7,72.8,89,72.6,88.6,73.3z M84.3,73.2
		c0.8-0.2-0.3,3.4-3.4,6.1C80.9,79.3,83.4,73.4,84.3,73.2z M54.2,86.6c-0.2,0-0.3-0.2-0.3-0.2c-0.5-3,4.4-10.1,5.7-10.3
		C61.2,75.8,55.7,86.4,54.2,86.6z M62.1,95.1c-0.5,0.1-0.9-0.1-1-0.6c-0.3-0.9,6.8-6.1,6.8-6.1S64.7,94.6,62.1,95.1z"/>
</g>
</svg>
